<svg width="36" height="36" viewBox="0 0 36 36" fill="none" xmlns="http://www.w3.org/2000/svg">
<path d="M29.0174 13.5767H27.2584C26.587 13.5767 26.0364 13.0261 26.0364 12.3413C26.0364 11.6833 26.587 11.1328 27.2584 11.1328H29.0174C30.8838 11.1328 32.5758 11.8982 33.8111 13.1067C35.0465 14.3286 35.7984 16.0339 35.7984 17.9138C35.7984 19.7937 35.033 21.4856 33.8111 22.7209C32.5758 23.9294 30.8838 24.6948 29.0174 24.6948H20.0611C19.6314 25.4602 18.8123 25.9705 17.8858 25.9705C16.5162 25.9705 15.4017 24.856 15.4017 23.4863C15.4017 22.1033 16.5162 20.9888 17.8858 20.9888C18.8123 20.9888 19.6314 21.5124 20.0611 22.2644H29.0174C30.199 22.2644 31.2867 21.781 32.0789 20.9888C32.8577 20.2099 33.3545 19.1223 33.3545 17.9272C33.3545 16.7322 32.8577 15.6445 32.0789 14.8657C31.3001 14.06 30.2125 13.5767 29.0174 13.5767Z" fill="#FF4081"/>
<path d="M13.562 6.79443V8.54004C13.562 9.21142 13.0115 9.77538 12.3401 9.77538C11.6821 9.77538 11.1316 9.22485 11.1316 8.54004V6.79443C11.1316 4.91455 11.897 3.22265 13.1189 1.98729C14.3543 0.765371 16.0461 0 17.9126 0C19.7925 0 21.4844 0.765371 22.7197 1.98729C23.9551 3.22265 24.6936 4.91455 24.6936 6.79443V15.7373C25.459 16.1804 25.9692 16.9861 25.9692 17.9126C25.9692 19.2822 24.8547 20.3967 23.4851 20.3967C22.1155 20.3967 21.001 19.2822 21.001 17.9126C21.001 16.9861 21.5112 16.1804 22.2632 15.7373V6.79443C22.2632 5.59936 21.7798 4.51171 20.9876 3.71948C20.2088 2.94067 19.1211 2.44384 17.926 2.44384C16.731 2.44384 15.6567 2.94067 14.8645 3.71948C14.032 4.51171 13.562 5.59936 13.562 6.79443Z" fill="#00B3DB"/>
<path d="M6.78101 24.6931C4.90112 24.6931 3.20922 23.9277 1.97387 22.7192C0.738519 21.4973 0 19.792 0 17.9121C0 16.0322 0.751947 14.3403 1.97387 13.105C3.20922 11.8965 4.90112 11.1311 6.78101 11.1311H15.7373C16.167 10.3657 16.9727 9.85547 17.8992 9.85547C19.2822 9.85547 20.3833 10.97 20.3833 12.3396C20.3833 13.7227 19.2822 14.8372 17.8992 14.8372C16.9727 14.8372 16.167 14.3135 15.7373 13.5615H6.78101C5.58594 13.5615 4.49828 14.0449 3.71948 14.8372C2.92724 15.616 2.44384 16.7036 2.44384 17.8987C2.44384 19.0937 2.92724 20.1814 3.71948 20.9602C4.49828 21.7524 5.58594 22.2358 6.78101 22.2358H8.54002C9.19798 22.2358 9.74852 22.7864 9.74852 23.4712C9.74852 24.156 9.19798 24.6797 8.54002 24.6797H6.78101V24.6931Z" fill="#FF4081"/>
<path d="M24.6667 29.032C24.6667 30.9119 23.9148 32.6037 22.6929 33.8391C21.4575 35.0744 19.7656 35.8264 17.8857 35.8264C16.0193 35.8264 14.3274 35.061 13.092 33.8391C11.8567 32.6037 11.1047 30.9119 11.1047 29.032V20.0891C10.3394 19.646 9.8291 18.8403 9.8291 17.9138C9.8291 16.5442 10.9436 15.4297 12.3132 15.4297C13.6963 15.4297 14.8108 16.5442 14.8108 17.9138C14.8108 18.8403 14.3005 19.646 13.5352 20.0891V29.032C13.5352 30.2271 14.0186 31.3147 14.8108 32.1069C15.603 32.8857 16.6772 33.3826 17.8723 33.3826C19.0674 33.3826 20.155 32.8857 20.9338 32.1069C21.7261 31.3147 22.2095 30.2271 22.2095 29.032V27.2864C22.2095 26.615 22.76 26.051 23.4448 26.051C24.1296 26.051 24.6533 26.6016 24.6533 27.2864V29.032H24.6667Z" fill="#00B3DB"/>
</svg>
