<svg width="87" height="38" viewBox="0 0 87 38" fill="none" xmlns="http://www.w3.org/2000/svg">
<path d="M22.5088 22.7654H16.7902L7.43242 12.7875V22.7654H2.6618V1.12109H7.43242V10.6385L16.4844 1.12109H22.1112L12.0807 11.4674L22.5088 22.7654Z" fill="#161F47"/>
<path d="M23.0205 22.7654V1.12109H27.6382V22.7654H23.0205Z" fill="#161F47"/>
<path d="M31.1734 22.7654V7.69114H35.7912V22.7654H31.1734Z" fill="#161F47"/>
<path d="M48.7453 7.32273C50.5393 7.32273 51.8747 7.85488 52.7514 8.91919C53.628 9.96303 54.0663 11.5493 54.0663 13.6779V22.7654H49.4486V13.8928C49.4486 12.8694 49.2549 12.1223 48.8676 11.6516C48.5006 11.1808 47.9196 10.9455 47.1245 10.9455C46.1663 10.9455 45.3916 11.2525 44.8003 11.8665C44.2295 12.4805 43.9441 13.2992 43.9441 14.3226V22.7654H39.3264V7.69114H43.8217V9.84022C44.3518 9.02152 45.0348 8.39727 45.8707 7.96745C46.7269 7.53764 47.6851 7.32273 48.7453 7.32273Z" fill="#161F47"/>
<path d="M57.5136 22.7654V7.69114H62.1313V22.7654H57.5136Z" fill="#161F47"/>
<path d="M85.8805 22.7654H80.1618L70.8041 12.7875V22.7654H66.0335V1.12109H70.8041V10.6385L79.856 1.12109H85.4829L75.4524 11.4674L85.8805 22.7654Z" fill="#161F47"/>
<path d="M35.8746 0.746094H31.0233V5.22423H35.8746V0.746094Z" fill="#00B3DB"/>
<path d="M62.3702 0.746094H57.5189V5.22423H62.3702V0.746094Z" fill="#00B3DB"/>
<path d="M37.7405 2.98516C37.7405 4.22176 38.743 5.22423 39.9796 5.22423C41.2162 5.22423 42.2187 4.22176 42.2187 2.98516C42.2187 1.74856 41.2162 0.746094 39.9796 0.746094C38.743 0.746094 37.7405 1.74856 37.7405 2.98516Z" fill="#FF4081"/>
<path d="M51.1749 2.98516C51.1749 4.22176 52.1774 5.22423 53.414 5.22423C54.6506 5.22423 55.6531 4.22176 55.6531 2.98516C55.6531 1.74856 54.6506 0.746094 53.414 0.746094C52.1774 0.746094 51.1749 1.74856 51.1749 2.98516Z" fill="#FF4081"/>
<path d="M44.4577 2.98516C44.4577 4.22176 45.4602 5.22423 46.6968 5.22423C47.9334 5.22423 48.9358 4.22176 48.9358 2.98516C48.9358 1.74856 47.9334 0.746094 46.6968 0.746094C45.4602 0.746094 44.4577 1.74856 44.4577 2.98516Z" fill="#FF4081"/>
<path d="M2.95595 34.2578V25.9912H8.83049V27.6563H5.05484V29.2275H8.59598V30.8808H5.05484V32.5928H8.83049V34.2578H2.95595ZM16.0827 25.9912H18.2637L14.4997 34.2578H12.7878L9.02387 25.9912H11.2635L13.6672 31.5726L16.0827 25.9912ZM18.7581 34.2578V25.9912H24.6326V27.6563H20.857V29.2275H24.3981V30.8808H20.857V32.5928H24.6326V34.2578H18.7581ZM33.1886 34.2578H30.82L29.3895 31.6195C29.2097 31.3147 28.9244 31.1622 28.5335 31.1622H27.8769V34.2578H25.7545V25.9912H29.6943C30.6949 25.9912 31.4454 26.2101 31.9457 26.6479C32.4538 27.0778 32.7078 27.7032 32.7078 28.524C32.7078 29.1493 32.5359 29.6809 32.1919 30.1187C31.848 30.5486 31.3633 30.8378 30.7379 30.9864C31.2148 31.088 31.5939 31.3968 31.8753 31.9127L33.1886 34.2578ZM29.3543 29.5441C29.8311 29.5441 30.1712 29.4698 30.3744 29.3213C30.5855 29.1728 30.691 28.9305 30.691 28.5943C30.691 28.2504 30.5855 28.0041 30.3744 27.8556C30.1712 27.6993 29.8311 27.6211 29.3543 27.6211H27.8534V29.5441H29.3543ZM41.5524 25.9912L38.0581 30.576V34.2578H35.9006V30.576L32.4298 25.9912H34.857L36.9676 28.864L39.1017 25.9912H41.5524ZM52.0099 25.9912H54.0501L51.0953 34.2578H49.3833L47.6362 29.2979L45.8657 34.2578H44.142L41.1988 25.9912H43.3915L45.1035 31.2326L46.9561 25.9912H48.4453L50.2159 31.3264L52.0099 25.9912ZM60.4417 25.9912H62.5523V34.2578H60.4417V30.916H57.0647V34.2578H54.9541V25.9912H57.0647V29.2041H60.4417V25.9912ZM64.0575 34.2578V25.9912H69.9321V27.6563H66.1564V29.2275H69.6976V30.8808H66.1564V32.5928H69.9321V34.2578H64.0575ZM78.488 34.2578H76.1195L74.6889 31.6195C74.5091 31.3147 74.2238 31.1622 73.833 31.1622H73.1763V34.2578H71.054V25.9912H74.9938C75.9944 25.9912 76.7448 26.2101 77.2451 26.6479C77.7532 27.0778 78.0073 27.7032 78.0073 28.524C78.0073 29.1493 77.8353 29.6809 77.4914 30.1187C77.1474 30.5486 76.6627 30.8378 76.0374 30.9864C76.5142 31.088 76.8933 31.3968 77.1748 31.9127L78.488 34.2578ZM74.6537 29.5441C75.1306 29.5441 75.4706 29.4698 75.6739 29.3213C75.8849 29.1728 75.9905 28.9305 75.9905 28.5943C75.9905 28.2504 75.8849 28.0041 75.6739 27.8556C75.4706 27.6993 75.1306 27.6211 74.6537 27.6211H73.1529V29.5441H74.6537ZM79.3444 34.2578V25.9912H85.2189V27.6563H81.4433V29.2275H84.9844V30.8808H81.4433V32.5928H85.2189V34.2578H79.3444Z" fill="#161F47"/>
</svg>
